<?xml version="1.0" encoding="UTF-8"?>
<!DOCTYPE svg PUBLIC "-//W3C//DTD SVG 1.1//EN" "http://www.w3.org/Graphics/SVG/1.1/DTD/svg11.dtd">
<!-- Creator: CorelDRAW -->
<svg xmlns="http://www.w3.org/2000/svg" xml:space="preserve" width="21.4235mm" height="20.4861mm" style="shape-rendering:geometricPrecision; text-rendering:geometricPrecision; image-rendering:optimizeQuality; fill-rule:evenodd; clip-rule:evenodd"
viewBox="0 0 6.02034 5.75691"
 xmlns:xlink="http://www.w3.org/1999/xlink">
 <defs>
  <style type="text/css">
   <![CDATA[
    .str0 {stroke:#FEFEFE;stroke-width:0.0562031}
    .fil0 {fill:#295B77}
    .fil1 {fill:#FEFEFE}
   ]]>
  </style>
 </defs>
 <g id="Layer_x0020_1">
  <metadata id="CorelCorpID_0Corel-Layer"/>
  <g id="_323618176">
   <path id="_324474264" class="fil0" d="M3.0994 0.220963c1.62053,0.0425176 2.92093,1.26361 2.92093,2.76508 0,1.52993 -1.34857,2.77087 -3.00875,2.77087 -1.66305,0 -3.01159,-1.24094 -3.01159,-2.77087 0,-0.382378 0.0850072,-0.745028 0.237992,-1.07651l0.654429 -1.90953 2.20698 0.220963z"/>
   <path id="_324475056" class="fil1 str0" d="M3.08805 1.13609c0.920747,0 1.66586,0.696947 1.66586,1.55539 0,0.858418 -0.745113,1.55536 -1.66586,1.55536 -0.628913,0 -1.17571,-0.325781 -1.45903,-0.807414l-0.527129 1.68907c-0.124799,-0.0939154 -0.253139,-0.208092 -0.356721,-0.317997l0.736542 -2.52984c0.192664,-0.660134 0.838578,-1.14458 1.60634,-1.14458zm-0.0112968 0.407978l0 0c0.677107,0 1.22956,0.512825 1.22956,1.14741 0,0.634589 -0.552448,1.14739 -1.22956,1.14739 -0.677107,0 -1.22958,-0.512797 -1.22958,-1.14739 0,-0.634589 0.552477,-1.14741 1.22958,-1.14741z"/>
  </g>
 </g>
</svg>
